STARTFONT 2.1
FONT -FontForge-Everyday_Vast_Bold_Original-Book-R-Normal--11-110-75-75-P-75-ISO10646-1
SIZE 11 75 75
FONTBOUNDINGBOX 14 15 0 0
COMMENT "Generated by fontforge, http://fontforge.sourceforge.net"
STARTPROPERTIES 38
FOUNDRY "FontForge"
FAMILY_NAME "Everyday_Vast_Bold_Original"
WEIGHT_NAME "Book"
SLANT "R"
SETWIDTH_NAME "Normal"
ADD_STYLE_NAME ""
PIXEL_SIZE 11
POINT_SIZE 110
RESOLUTION_X 75
RESOLUTION_Y 75
SPACING "P"
AVERAGE_WIDTH 75
CHARSET_REGISTRY "ISO10646"
CHARSET_ENCODING "1"
FONTNAME_REGISTRY ""
CHARSET_COLLECTIONS "ISO10646-1"
FONT_NAME "Everyday_Vast_Bold_Original"
FACE_NAME "Everyday_Vast_Bold_Original Regular"
FONT_VERSION "1.0"
FONT_ASCENT 8
FONT_DESCENT 3
UNDERLINE_POSITION 1
UNDERLINE_THICKNESS 1
X_HEIGHT 7
CAP_HEIGHT 14
RAW_ASCENT 799
RAW_DESCENT 200
NORM_SPACE 9
RELATIVE_WEIGHT 40
RELATIVE_SETWIDTH 50
SUPERSCRIPT_X 0
SUPERSCRIPT_Y 5
SUPERSCRIPT_SIZE 5
SUBSCRIPT_X 0
SUBSCRIPT_Y -1
SUBSCRIPT_SIZE 5
AVG_LOWERCASE_WIDTH 62
AVG_UPPERCASE_WIDTH 98
ENDPROPERTIES
CHARS 98
STARTCHAR uni000D
ENCODING 13
SWIDTH 90 0
DWIDTH 1 0
BBX 1 1 0 0
BITMAP
00
ENDCHAR
STARTCHAR space
ENCODING 32
SWIDTH 818 0
DWIDTH 9 0
BBX 1 1 0 0
BITMAP
00
ENDCHAR
STARTCHAR exclam
ENCODING 33
SWIDTH 636 0
DWIDTH 7 0
BBX 6 11 0 4
BITMAP
30
F0
30
30
30
30
30
30
30
30
FC
ENDCHAR
STARTCHAR quotedbl
ENCODING 34
SWIDTH 818 0
DWIDTH 9 0
BBX 8 11 0 4
BITMAP
7E
C3
03
03
03
7E
C0
C0
C0
C1
FF
ENDCHAR
STARTCHAR numbersign
ENCODING 35
SWIDTH 818 0
DWIDTH 9 0
BBX 8 11 0 4
BITMAP
7E
C3
03
03
03
3E
03
03
03
C3
7E
ENDCHAR
STARTCHAR dollar
ENCODING 36
SWIDTH 818 0
DWIDTH 9 0
BBX 8 11 0 4
BITMAP
83
83
83
83
83
FF
03
03
03
03
03
ENDCHAR
STARTCHAR percent
ENCODING 37
SWIDTH 818 0
DWIDTH 9 0
BBX 8 11 0 4
BITMAP
FF
C1
C0
C0
C0
7E
03
03
03
C3
7E
ENDCHAR
STARTCHAR ampersand
ENCODING 38
SWIDTH 818 0
DWIDTH 9 0
BBX 8 11 0 4
BITMAP
7E
C3
C0
C0
FE
C1
C1
C1
C1
C1
7E
ENDCHAR
STARTCHAR quotesingle
ENCODING 39
SWIDTH 818 0
DWIDTH 9 0
BBX 8 11 0 4
BITMAP
FF
83
03
06
06
0C
0C
18
18
30
30
ENDCHAR
STARTCHAR parenleft
ENCODING 40
SWIDTH 818 0
DWIDTH 9 0
BBX 8 11 0 1
BITMAP
7E
C1
C1
C1
C1
7E
C1
C1
C1
C1
7E
ENDCHAR
STARTCHAR parenright
ENCODING 41
SWIDTH 818 0
DWIDTH 9 0
BBX 8 11 0 1
BITMAP
7E
C1
C1
C1
C1
C1
7F
01
01
C1
7E
ENDCHAR
STARTCHAR asterisk
ENCODING 42
SWIDTH 90 0
DWIDTH 1 0
BBX 1 1 0 0
BITMAP
00
ENDCHAR
STARTCHAR plus
ENCODING 43
SWIDTH 90 0
DWIDTH 1 0
BBX 1 1 0 0
BITMAP
00
ENDCHAR
STARTCHAR comma
ENCODING 44
SWIDTH 90 0
DWIDTH 1 0
BBX 1 1 0 0
BITMAP
00
ENDCHAR
STARTCHAR hyphen
ENCODING 45
SWIDTH 90 0
DWIDTH 1 0
BBX 1 1 0 0
BITMAP
00
ENDCHAR
STARTCHAR period
ENCODING 46
SWIDTH 90 0
DWIDTH 1 0
BBX 1 1 0 0
BITMAP
00
ENDCHAR
STARTCHAR slash
ENCODING 47
SWIDTH 90 0
DWIDTH 1 0
BBX 1 1 0 0
BITMAP
00
ENDCHAR
STARTCHAR zero
ENCODING 48
SWIDTH 727 0
DWIDTH 8 0
BBX 7 14 0 1
BITMAP
86
86
86
4E
36
06
06
00
00
00
00
00
00
86
ENDCHAR
STARTCHAR one
ENCODING 49
SWIDTH 727 0
DWIDTH 8 0
BBX 7 14 0 1
BITMAP
C0
C0
C0
C0
C0
00
00
00
00
00
00
00
00
FE
ENDCHAR
STARTCHAR two
ENCODING 50
SWIDTH 727 0
DWIDTH 8 0
BBX 7 5 0 10
BITMAP
7C
06
06
C6
7C
ENDCHAR
STARTCHAR three
ENCODING 51
SWIDTH 636 0
DWIDTH 7 0
BBX 6 5 0 10
BITMAP
C0
C0
C0
CC
78
ENDCHAR
STARTCHAR four
ENCODING 52
SWIDTH 727 0
DWIDTH 8 0
BBX 7 5 0 10
BITMAP
86
86
86
4E
36
ENDCHAR
STARTCHAR five
ENCODING 53
SWIDTH 727 0
DWIDTH 8 0
BBX 6 5 1 10
BITMAP
C4
68
68
30
30
ENDCHAR
STARTCHAR six
ENCODING 54
SWIDTH 1181 0
DWIDTH 13 0
BBX 12 5 0 10
BITMAP
C210
C210
C210
6520
38C0
ENDCHAR
STARTCHAR seven
ENCODING 55
SWIDTH 818 0
DWIDTH 9 0
BBX 8 5 0 10
BITMAP
3C
62
62
C1
C1
ENDCHAR
STARTCHAR eight
ENCODING 56
SWIDTH 727 0
DWIDTH 8 0
BBX 7 10 0 5
BITMAP
86
86
86
86
86
86
4E
36
06
7C
ENDCHAR
STARTCHAR nine
ENCODING 57
SWIDTH 727 0
DWIDTH 8 0
BBX 7 8 0 7
BITMAP
86
0E
1C
38
70
E0
C2
FE
ENDCHAR
STARTCHAR colon
ENCODING 58
SWIDTH 90 0
DWIDTH 1 0
BBX 1 1 0 0
BITMAP
00
ENDCHAR
STARTCHAR semicolon
ENCODING 59
SWIDTH 272 0
DWIDTH 3 0
BBX 2 8 0 1
BITMAP
C0
C0
C0
C0
C0
C0
C0
C0
ENDCHAR
STARTCHAR less
ENCODING 60
SWIDTH 636 0
DWIDTH 7 0
BBX 6 3 0 6
BITMAP
6C
6C
D8
ENDCHAR
STARTCHAR equal
ENCODING 61
SWIDTH 1000 0
DWIDTH 11 0
BBX 10 6 0 1
BITMAP
3100
3100
FFC0
3100
3100
3100
ENDCHAR
STARTCHAR greater
ENCODING 62
SWIDTH 727 0
DWIDTH 8 0
BBX 7 8 0 1
BITMAP
10
7C
D6
D0
50
38
14
16
ENDCHAR
STARTCHAR question
ENCODING 63
SWIDTH 1090 0
DWIDTH 12 0
BBX 11 8 0 1
BITMAP
6060
D0E0
D1C0
6380
0700
0E00
1C00
38C0
ENDCHAR
STARTCHAR at
ENCODING 64
SWIDTH 454 0
DWIDTH 5 0
BBX 4 8 0 7
BITMAP
C0
C0
C0
C0
C0
60
60
30
ENDCHAR
STARTCHAR A
ENCODING 65
SWIDTH 818 0
DWIDTH 9 0
BBX 8 10 0 1
BITMAP
18
34
62
62
C1
C1
FF
C1
C1
C1
ENDCHAR
STARTCHAR B
ENCODING 66
SWIDTH 818 0
DWIDTH 9 0
BBX 8 10 0 1
BITMAP
FC
C2
C1
C1
C2
FC
C2
C1
C1
C2
ENDCHAR
STARTCHAR C
ENCODING 67
SWIDTH 909 0
DWIDTH 10 0
BBX 9 10 0 1
BITMAP
3F00
6180
C000
C000
C000
C000
C000
C000
C000
6180
ENDCHAR
STARTCHAR D
ENCODING 68
SWIDTH 818 0
DWIDTH 9 0
BBX 8 10 0 1
BITMAP
FC
C2
C1
C1
C1
C1
C1
C1
C1
C2
ENDCHAR
STARTCHAR E
ENCODING 69
SWIDTH 818 0
DWIDTH 9 0
BBX 8 10 0 1
BITMAP
FF
C0
C0
C0
C0
FC
C0
C0
C0
C0
ENDCHAR
STARTCHAR F
ENCODING 70
SWIDTH 818 0
DWIDTH 9 0
BBX 8 10 0 1
BITMAP
FF
C0
C0
C0
C0
FC
C0
C0
C0
C0
ENDCHAR
STARTCHAR G
ENCODING 71
SWIDTH 909 0
DWIDTH 10 0
BBX 9 10 0 1
BITMAP
3F00
6180
C000
C000
C000
C780
C080
C080
C080
6080
ENDCHAR
STARTCHAR H
ENCODING 72
SWIDTH 818 0
DWIDTH 9 0
BBX 8 10 0 1
BITMAP
C1
C1
C1
C1
C1
FF
C1
C1
C1
C1
ENDCHAR
STARTCHAR I
ENCODING 73
SWIDTH 818 0
DWIDTH 9 0
BBX 8 14 0 1
BITMAP
C1
00
00
00
00
00
00
FC
30
30
30
30
30
30
ENDCHAR
STARTCHAR J
ENCODING 74
SWIDTH 818 0
DWIDTH 9 0
BBX 8 14 0 1
BITMAP
FC
00
00
00
00
00
00
3F
03
03
03
03
03
03
ENDCHAR
STARTCHAR K
ENCODING 75
SWIDTH 818 0
DWIDTH 9 0
BBX 8 14 0 1
BITMAP
3F
00
00
00
00
00
00
C1
C1
C2
C2
C4
F8
C4
ENDCHAR
STARTCHAR L
ENCODING 76
SWIDTH 636 0
DWIDTH 7 0
BBX 6 14 0 1
BITMAP
FC
00
00
00
00
00
00
C0
C0
C0
C0
C0
C0
C0
ENDCHAR
STARTCHAR M
ENCODING 77
SWIDTH 1363 0
DWIDTH 15 0
BBX 14 14 0 1
BITMAP
FF00
0000
0000
0000
0000
0000
0000
DC70
E288
C104
C104
C104
C104
C104
ENDCHAR
STARTCHAR N
ENCODING 78
SWIDTH 818 0
DWIDTH 9 0
BBX 8 14 0 1
BITMAP
C0
00
00
00
00
00
00
DC
E2
C1
C1
C1
C1
C1
ENDCHAR
STARTCHAR O
ENCODING 79
SWIDTH 909 0
DWIDTH 10 0
BBX 9 14 0 1
BITMAP
3F00
0000
0000
0000
0000
0000
0000
3E00
6100
C080
C080
C080
C080
C080
ENDCHAR
STARTCHAR P
ENCODING 80
SWIDTH 818 0
DWIDTH 9 0
BBX 8 14 0 1
BITMAP
C1
00
00
00
00
00
00
FC
C2
C1
C1
C1
C2
FC
ENDCHAR
STARTCHAR Q
ENCODING 81
SWIDTH 909 0
DWIDTH 10 0
BBX 9 14 0 1
BITMAP
3000
3000
3000
FC00
0000
0000
0000
0000
0000
0000
3E00
6100
C080
C080
ENDCHAR
STARTCHAR R
ENCODING 82
SWIDTH 818 0
DWIDTH 9 0
BBX 8 14 0 1
BITMAP
03
03
C6
7C
00
00
00
00
00
00
FC
C2
C1
C1
ENDCHAR
STARTCHAR S
ENCODING 83
SWIDTH 818 0
DWIDTH 9 0
BBX 8 14 0 1
BITMAP
C2
C2
C1
C1
00
00
00
00
00
00
7E
C3
C0
C0
ENDCHAR
STARTCHAR T
ENCODING 84
SWIDTH 818 0
DWIDTH 9 0
BBX 8 14 0 1
BITMAP
C0
C0
C0
7F
00
00
00
00
00
00
FF
18
18
18
ENDCHAR
STARTCHAR U
ENCODING 85
SWIDTH 1363 0
DWIDTH 15 0
BBX 14 14 0 1
BITMAP
C104
C104
C004
C004
0000
0000
0000
0000
0000
0000
8300
8300
8300
8300
ENDCHAR
STARTCHAR V
ENCODING 86
SWIDTH 818 0
DWIDTH 9 0
BBX 8 14 0 1
BITMAP
C1
C1
C1
C1
00
00
00
00
00
00
C1
C1
C1
C1
ENDCHAR
STARTCHAR W
ENCODING 87
SWIDTH 1363 0
DWIDTH 15 0
BBX 14 14 0 1
BITMAP
C080
C080
6100
3E00
0000
0000
0000
0000
0000
0000
C004
C004
C104
C104
ENDCHAR
STARTCHAR X
ENCODING 88
SWIDTH 909 0
DWIDTH 10 0
BBX 9 14 0 1
BITMAP
C000
C000
C000
C000
0000
0000
0000
0000
0000
0000
C080
C080
6100
6100
ENDCHAR
STARTCHAR Y
ENCODING 89
SWIDTH 1000 0
DWIDTH 11 0
BBX 10 14 0 1
BITMAP
C080
C080
C080
C080
C280
6100
3E80
0000
0000
0000
0000
0000
0000
C040
ENDCHAR
STARTCHAR Z
ENCODING 90
SWIDTH 818 0
DWIDTH 9 0
BBX 8 14 0 1
BITMAP
C1
C2
FC
C2
C2
C1
C1
00
00
00
00
00
00
FF
ENDCHAR
STARTCHAR bracketleft
ENCODING 91
SWIDTH 1000 0
DWIDTH 11 0
BBX 10 8 0 1
BITMAP
3800
6400
6400
6800
3000
6800
C400
C240
ENDCHAR
STARTCHAR backslash
ENCODING 92
SWIDTH 727 0
DWIDTH 8 0
BBX 7 12 0 1
BITMAP
FE
00
00
00
00
30
60
60
C0
C0
C0
C0
ENDCHAR
STARTCHAR bracketright
ENCODING 93
SWIDTH 363 0
DWIDTH 4 0
BBX 3 3 0 6
BITMAP
60
60
C0
ENDCHAR
STARTCHAR asciicircum
ENCODING 94
SWIDTH 454 0
DWIDTH 5 0
BBX 4 13 0 1
BITMAP
C0
C0
00
00
00
00
C0
60
60
30
30
30
30
ENDCHAR
STARTCHAR underscore
ENCODING 95
SWIDTH 818 0
DWIDTH 9 0
BBX 8 2 0 1
BITMAP
18
99
ENDCHAR
STARTCHAR grave
ENCODING 96
SWIDTH 1000 0
DWIDTH 11 0
BBX 10 14 0 1
BITMAP
FFC0
3100
3100
0000
0000
0000
0000
0000
0000
0000
0000
0000
1800
1800
ENDCHAR
STARTCHAR a
ENCODING 97
SWIDTH 1000 0
DWIDTH 11 0
BBX 10 10 0 5
BITMAP
C040
6080
6080
3100
1A00
0C00
0C00
0C00
0C00
0C00
ENDCHAR
STARTCHAR b
ENCODING 98
SWIDTH 818 0
DWIDTH 9 0
BBX 8 10 0 5
BITMAP
83
03
07
0E
1C
38
70
E0
C1
FF
ENDCHAR
STARTCHAR c
ENCODING 99
SWIDTH 90 0
DWIDTH 1 0
BBX 1 1 0 0
BITMAP
00
ENDCHAR
STARTCHAR d
ENCODING 100
SWIDTH 90 0
DWIDTH 1 0
BBX 1 1 0 0
BITMAP
00
ENDCHAR
STARTCHAR e
ENCODING 101
SWIDTH 90 0
DWIDTH 1 0
BBX 1 1 0 0
BITMAP
00
ENDCHAR
STARTCHAR f
ENCODING 102
SWIDTH 90 0
DWIDTH 1 0
BBX 1 1 0 0
BITMAP
00
ENDCHAR
STARTCHAR g
ENCODING 103
SWIDTH 90 0
DWIDTH 1 0
BBX 1 1 0 0
BITMAP
00
ENDCHAR
STARTCHAR h
ENCODING 104
SWIDTH 90 0
DWIDTH 1 0
BBX 1 1 0 0
BITMAP
00
ENDCHAR
STARTCHAR i
ENCODING 105
SWIDTH 727 0
DWIDTH 8 0
BBX 7 9 0 2
BITMAP
3C
06
3E
46
86
86
86
46
3E
ENDCHAR
STARTCHAR j
ENCODING 106
SWIDTH 727 0
DWIDTH 8 0
BBX 7 11 0 2
BITMAP
C0
C0
F8
C4
C2
C2
C2
C2
C2
C4
F8
ENDCHAR
STARTCHAR k
ENCODING 107
SWIDTH 727 0
DWIDTH 8 0
BBX 7 9 0 2
BITMAP
3C
60
C0
C0
C0
C0
C0
66
3C
ENDCHAR
STARTCHAR l
ENCODING 108
SWIDTH 727 0
DWIDTH 8 0
BBX 7 11 0 2
BITMAP
06
06
3E
46
86
86
86
86
86
46
3E
ENDCHAR
STARTCHAR m
ENCODING 109
SWIDTH 727 0
DWIDTH 8 0
BBX 7 9 0 2
BITMAP
3C
62
C2
C2
FE
C0
C0
66
3C
ENDCHAR
STARTCHAR n
ENCODING 110
SWIDTH 636 0
DWIDTH 7 0
BBX 6 11 0 2
BITMAP
78
CC
C0
C0
C0
F8
C0
C0
C0
C0
C0
ENDCHAR
STARTCHAR o
ENCODING 111
SWIDTH 727 0
DWIDTH 8 0
BBX 7 10 0 1
BITMAP
3C
46
86
86
86
86
86
46
3E
06
ENDCHAR
STARTCHAR p
ENCODING 112
SWIDTH 727 0
DWIDTH 8 0
BBX 7 11 0 2
BITMAP
C0
C0
F8
C4
C2
C2
C2
C2
C2
C2
C2
ENDCHAR
STARTCHAR q
ENCODING 113
SWIDTH 272 0
DWIDTH 3 0
BBX 2 9 0 1
BITMAP
C0
00
C0
C0
C0
C0
C0
C0
C0
ENDCHAR
STARTCHAR r
ENCODING 114
SWIDTH 636 0
DWIDTH 7 0
BBX 2 9 4 1
BITMAP
C0
00
C0
C0
C0
C0
C0
C0
C0
ENDCHAR
STARTCHAR s
ENCODING 115
SWIDTH 727 0
DWIDTH 8 0
BBX 7 9 0 1
BITMAP
C0
C0
C2
C2
C4
F8
C4
C2
C2
ENDCHAR
STARTCHAR t
ENCODING 116
SWIDTH 272 0
DWIDTH 3 0
BBX 2 9 0 1
BITMAP
C0
C0
C0
C0
C0
C0
C0
C0
C0
ENDCHAR
STARTCHAR u
ENCODING 117
SWIDTH 1181 0
DWIDTH 13 0
BBX 12 7 0 1
BITMAP
D8C0
E520
C210
C210
C210
C210
C210
ENDCHAR
STARTCHAR v
ENCODING 118
SWIDTH 727 0
DWIDTH 8 0
BBX 7 7 0 1
BITMAP
D8
E4
C2
C2
C2
C2
C2
ENDCHAR
STARTCHAR w
ENCODING 119
SWIDTH 727 0
DWIDTH 8 0
BBX 7 14 0 1
BITMAP
7C
00
00
00
00
00
00
38
64
C2
C2
C2
C2
C2
ENDCHAR
STARTCHAR x
ENCODING 120
SWIDTH 727 0
DWIDTH 8 0
BBX 7 7 0 1
BITMAP
F8
C4
C2
C2
C2
C2
C2
ENDCHAR
STARTCHAR y
ENCODING 121
SWIDTH 727 0
DWIDTH 8 0
BBX 7 14 0 1
BITMAP
C0
C0
00
00
00
00
00
00
00
00
3E
46
86
86
ENDCHAR
STARTCHAR z
ENCODING 122
SWIDTH 727 0
DWIDTH 8 0
BBX 7 14 0 1
BITMAP
0C
0C
CC
78
00
00
00
00
00
00
7C
C6
C0
C0
ENDCHAR
STARTCHAR braceleft
ENCODING 123
SWIDTH 727 0
DWIDTH 8 0
BBX 7 3 0 12
BITMAP
D6
7C
10
ENDCHAR
STARTCHAR bar
ENCODING 124
SWIDTH 1000 0
DWIDTH 11 0
BBX 10 3 0 12
BITMAP
C140
6080
3F40
ENDCHAR
STARTCHAR braceright
ENCODING 125
SWIDTH 1090 0
DWIDTH 12 0
BBX 11 3 0 12
BITMAP
71A0
E1A0
C0C0
ENDCHAR
STARTCHAR asciitilde
ENCODING 126
SWIDTH 636 0
DWIDTH 7 0
BBX 4 5 2 1
BITMAP
30
30
70
60
E0
ENDCHAR
STARTCHAR uni220E
ENCODING 8718
SWIDTH 454 0
DWIDTH 5 0
BBX 4 8 0 7
BITMAP
30
30
30
30
30
60
60
C0
ENDCHAR
STARTCHAR .notdef
ENCODING -1
SWIDTH 90 0
DWIDTH 1 0
BBX 1 1 0 0
BITMAP
00
ENDCHAR
ENDFONT
